<svg width="163" height="152" viewBox="0 0 163 152" fill="none" xmlns="http://www.w3.org/2000/svg">
<path d="M160.442 76.1875C160.442 116.836 125.314 150 81.7133 150C38.1124 150 2.98456 116.836 2.98456 76.1875C2.98456 35.5385 38.1124 2.375 81.7133 2.375C125.314 2.375 160.442 35.5385 160.442 76.1875Z" fill="#edfdfe" stroke="black" stroke-width="4"/>
<path d="M33.0524 107.752C32.8604 107.896 32.5884 108.056 32.2364 108.232C31.9004 108.392 31.5004 108.544 31.0364 108.688C30.5724 108.832 30.0524 108.952 29.4764 109.048C28.9164 109.144 28.3164 109.192 27.6764 109.192C26.3164 109.192 25.0924 108.96 24.0044 108.496C22.9324 108.016 22.0204 107.376 21.2684 106.576C20.5164 105.776 19.9404 104.848 19.5404 103.792C19.1404 102.736 18.9404 101.616 18.9404 100.432C18.9404 99.12 19.1724 97.912 19.6364 96.808C20.1164 95.704 20.7644 94.752 21.5804 93.952C22.3964 93.152 23.3484 92.528 24.4364 92.08C25.5404 91.632 26.7084 91.408 27.9404 91.408C28.4044 91.408 28.8764 91.44 29.3564 91.504C29.8364 91.568 30.2844 91.656 30.7004 91.768C31.1324 91.88 31.5084 92.016 31.8284 92.176C32.1644 92.32 32.4204 92.472 32.5964 92.632C32.4684 92.824 32.3644 92.984 32.2844 93.112C32.2204 93.24 32.1484 93.376 32.0684 93.52C31.9884 93.648 31.9004 93.8 31.8044 93.976C31.7084 94.152 31.5804 94.384 31.4204 94.672C31.2124 94.528 30.9644 94.408 30.6764 94.312C30.4044 94.216 30.1164 94.136 29.8124 94.072C29.5084 94.008 29.1964 93.96 28.8764 93.928C28.5724 93.896 28.2924 93.88 28.0364 93.88C27.1084 93.88 26.2444 94.056 25.4444 94.408C24.6604 94.744 23.9804 95.208 23.4044 95.8C22.8284 96.376 22.3724 97.048 22.0364 97.816C21.7164 98.584 21.5564 99.384 21.5564 100.216C21.5564 101.032 21.7084 101.816 22.0124 102.568C22.3324 103.32 22.7644 103.992 23.3084 104.584C23.8684 105.176 24.5324 105.648 25.3004 106C26.0844 106.352 26.9404 106.528 27.8684 106.528C28.3644 106.528 28.8444 106.48 29.3084 106.384C29.7724 106.288 30.1884 106.176 30.5564 106.048C30.9404 105.92 31.2524 105.792 31.4924 105.664C31.7484 105.536 31.9004 105.44 31.9484 105.376L33.0524 107.752ZM46.2211 109C46.1411 108.824 46.0291 108.568 45.8851 108.232C45.7411 107.896 45.5731 107.512 45.3811 107.08C45.2051 106.632 45.0051 106.152 44.7811 105.64C44.5731 105.112 44.3571 104.568 44.1331 104.008H37.9891L35.9251 109H33.3331L41.0851 90.784C41.1811 91.008 41.3491 91.416 41.5891 92.008C41.8451 92.6 42.1411 93.312 42.4771 94.144C42.8291 94.96 43.2131 95.872 43.6291 96.88C44.0611 97.872 44.4931 98.88 44.9251 99.904C45.3731 100.928 45.8051 101.936 46.2211 102.928C46.6531 103.92 47.0451 104.832 47.3971 105.664C47.7491 106.496 48.0451 107.208 48.2851 107.8C48.5411 108.376 48.7171 108.776 48.8131 109H46.2211ZM38.9011 101.8H43.2451C43.0211 101.272 42.8051 100.768 42.5971 100.288C42.4051 99.792 42.2211 99.344 42.0451 98.944C41.8851 98.528 41.7411 98.168 41.6131 97.864C41.4851 97.56 41.3891 97.32 41.3251 97.144C41.3091 97.112 41.2691 97 41.2051 96.808C41.1571 96.616 41.1171 96.44 41.0851 96.28C41.0531 96.44 41.0051 96.616 40.9411 96.808C40.8771 97 40.8371 97.112 40.8211 97.144L38.9011 101.8ZM50.9841 109V91.6H53.6241V106.504H62.2641V109H50.9841ZM64.6951 109V91.6H76.1191V93.976H67.3351V99.064H75.1591V101.488H67.3351V106.576H76.4551V109H64.6951ZM94.7716 91.6V109.792C94.5476 109.504 94.1156 109.04 93.4756 108.4C92.8356 107.76 92.0996 107.024 91.2676 106.192C90.4356 105.36 89.5476 104.488 88.6036 103.576C87.6756 102.664 86.7956 101.8 85.9636 100.984C85.1316 100.152 84.4036 99.416 83.7796 98.776C83.1556 98.12 82.7396 97.656 82.5316 97.384L82.0756 96.76L82.1476 97.528V109H79.5076V90.784C79.6836 91.008 79.9716 91.328 80.3716 91.744C80.7876 92.16 81.2676 92.648 81.8116 93.208C82.3716 93.752 82.9796 94.344 83.6356 94.984C84.3076 95.624 84.9796 96.272 85.6516 96.928C86.3396 97.584 87.0116 98.232 87.6676 98.872C88.3396 99.496 88.9476 100.08 89.4916 100.624C90.0516 101.168 90.5316 101.648 90.9316 102.064C91.3316 102.48 91.6116 102.792 91.7716 103L92.2276 103.672L92.1556 102.856V91.6H94.7716ZM99.0545 91.6H103.422C105.182 91.6 106.67 91.864 107.886 92.392C109.102 92.92 110.086 93.616 110.838 94.48C111.606 95.328 112.158 96.288 112.494 97.36C112.846 98.416 113.022 99.472 113.022 100.528C113.022 101.824 112.79 103 112.326 104.056C111.862 105.096 111.23 105.984 110.43 106.72C109.63 107.456 108.702 108.024 107.646 108.424C106.59 108.808 105.47 109 104.286 109H99.0545V91.6ZM103.902 106.504C104.83 106.504 105.686 106.368 106.47 106.096C107.27 105.824 107.958 105.432 108.534 104.92C109.126 104.392 109.582 103.752 109.902 103C110.238 102.232 110.406 101.352 110.406 100.36C110.406 99.304 110.222 98.384 109.854 97.6C109.486 96.816 109.006 96.168 108.414 95.656C107.822 95.128 107.15 94.744 106.398 94.504C105.662 94.248 104.91 94.12 104.142 94.12H101.67V106.504H103.902ZM126.26 109C126.18 108.824 126.068 108.568 125.924 108.232C125.78 107.896 125.612 107.512 125.42 107.08C125.244 106.632 125.044 106.152 124.82 105.64C124.612 105.112 124.396 104.568 124.172 104.008H118.028L115.964 109H113.372L121.124 90.784C121.22 91.008 121.388 91.416 121.628 92.008C121.884 92.6 122.18 93.312 122.516 94.144C122.868 94.96 123.252 95.872 123.668 96.88C124.1 97.872 124.532 98.88 124.964 99.904C125.412 100.928 125.844 101.936 126.26 102.928C126.692 103.92 127.084 104.832 127.436 105.664C127.788 106.496 128.084 107.208 128.324 107.8C128.58 108.376 128.756 108.776 128.852 109H126.26ZM118.94 101.8H123.284C123.06 101.272 122.844 100.768 122.636 100.288C122.444 99.792 122.26 99.344 122.084 98.944C121.924 98.528 121.78 98.168 121.652 97.864C121.524 97.56 121.428 97.32 121.364 97.144C121.348 97.112 121.308 97 121.244 96.808C121.196 96.616 121.156 96.44 121.124 96.28C121.092 96.44 121.044 96.616 120.98 96.808C120.916 97 120.876 97.112 120.86 97.144L118.94 101.8ZM131.023 109V91.6H135.775C136.687 91.6 137.519 91.72 138.271 91.96C139.039 92.2 139.695 92.56 140.239 93.04C140.799 93.504 141.231 94.08 141.535 94.768C141.839 95.44 141.991 96.216 141.991 97.096C141.991 97.576 141.943 98.056 141.847 98.536C141.751 99 141.591 99.456 141.367 99.904C141.159 100.336 140.887 100.744 140.551 101.128C140.215 101.496 139.807 101.808 139.327 102.064C139.967 103.072 140.663 104.192 141.415 105.424C142.167 106.64 142.927 107.832 143.695 109H140.551C140.231 108.504 139.895 107.984 139.543 107.44C139.207 106.896 138.863 106.36 138.511 105.832C138.175 105.288 137.839 104.76 137.503 104.248C137.183 103.72 136.879 103.232 136.591 102.784H136.111H133.663V109H131.023ZM133.663 100.312H136.039C136.679 100.312 137.215 100.208 137.647 100C138.079 99.776 138.415 99.504 138.655 99.184C138.911 98.864 139.087 98.52 139.183 98.152C139.295 97.784 139.351 97.448 139.351 97.144C139.351 96.84 139.295 96.512 139.183 96.16C139.087 95.792 138.911 95.456 138.655 95.152C138.399 94.832 138.055 94.568 137.623 94.36C137.207 94.152 136.687 94.048 136.063 94.048H133.663V100.312Z" fill="black"/>
<path d="M42.1484 72.5293C42.1484 73.6777 42.0137 74.9609 41.7441 76.3789C40.9121 80.8789 37.9004 83.5098 32.709 84.2715C31.7246 84.4121 30.8281 84.4824 30.0195 84.4824C27.0078 84.4824 24.2891 83.8496 21.8633 82.584C19.0977 81.1426 17.2168 79.0977 16.2207 76.4492C15.8574 75.4883 15.6758 74.6621 15.6758 73.9707C15.6758 72.0605 17.4922 70.8594 21.125 70.3672C22.1797 70.2266 23.0996 70.1562 23.8848 70.1562C25.7715 70.1562 27.2305 70.4316 28.2617 70.9824C29.3047 71.5332 29.7793 72.2656 29.6855 73.1797C29.4395 75.6758 27.207 77.4512 22.9883 78.5059C22.8711 78.541 22.8125 78.6348 22.8125 78.7871C22.8125 79.3027 23.4336 79.9824 24.6758 80.8262C26.0117 81.7285 27.2363 82.1797 28.3496 82.1797C29.8496 82.1797 31.0098 81.248 31.8301 79.3848C32.5801 77.6855 32.9551 75.4824 32.9551 72.7754C32.9551 67.748 31.9004 63.1777 29.791 59.0645C27.7051 59.6621 25.8945 60.4297 24.3594 61.3672C24.0195 61.5781 23.8496 61.9648 23.8496 62.5273C23.8496 62.8203 23.9375 63.3711 24.1133 64.1797C24.3008 64.9766 24.3945 65.4688 24.3945 65.6562C24.3945 66.0195 23.9844 66.3066 23.1641 66.5176C22.4375 66.6582 21.5176 66.8633 20.4043 67.1328C20.1113 64.3672 19.3672 60.7285 18.1719 56.2168C18.1367 56.0996 18.207 56.041 18.3828 56.041H22.5312C28.1445 56.041 32.8555 55.9473 36.6641 55.7598C36.875 55.748 36.998 55.8652 37.0332 56.1113C37.3262 58.3262 38.2988 61.1094 39.9512 64.4609C41.416 67.4258 42.1484 70.1152 42.1484 72.5293ZM77.0059 79.1914C76.6309 79.8828 76.0449 80.9258 75.248 82.3203C73.3262 82.2266 71.9844 82.1797 71.2227 82.1797C68.5859 82.1797 65.7031 82.4434 62.5742 82.9707C62.8672 80.9551 63.0137 78.9629 63.0137 76.9941C63.0137 74.8262 62.832 73.1328 62.4688 71.9141C60.5352 71.7266 57.5234 71.4043 53.4336 70.9473C53.0469 72.3184 52.6016 73.6953 52.0977 75.0781C51.5234 76.6602 50.9023 78.0078 50.2344 79.1211C50.9258 79.2852 52.7129 79.4375 55.5957 79.5781C55.373 81.0898 55.2617 82.4727 55.2617 83.7266C52.6016 82.8359 50.1172 82.1035 47.8086 81.5293C46.2734 81.1426 44.3047 80.7324 41.9023 80.2988C42.2305 79.877 42.6289 79.3379 43.0977 78.6816L44.0293 77.3984C44.4512 77.5742 45.125 77.873 46.0508 78.2949C47.8203 75.8574 49.4141 72.3184 50.832 67.6777C52.332 62.8145 53.1406 58.8184 53.2578 55.6895C55.0039 55.4785 56.6211 55.2148 58.1094 54.8984C59.6445 54.5586 61.3027 54.0898 63.084 53.4922C64.8184 56.3164 66.7227 60.5762 68.7969 66.2715C69.7461 69.0254 71.0059 72.6699 72.5762 77.2051C72.7988 77.8145 73.4492 78.2891 74.5273 78.6289C75.3594 78.8164 76.1855 79.0039 77.0059 79.1914ZM63.5762 63.459C63.5762 61.8535 62.4863 61.0508 60.3066 61.0508C58.7246 61.0508 57.2949 61.4727 56.0176 62.3164C54.6816 63.1953 54.0137 64.209 54.0137 65.3574C54.0137 66.8809 55.3203 67.6426 57.9336 67.6426C61.6953 67.6426 63.5762 66.248 63.5762 63.459ZM109.121 76.4141C109.121 76.918 109.039 77.4336 108.875 77.9609C108.406 79.4258 107.252 80.6797 105.412 81.7227C103.338 82.8945 100.854 83.4805 97.959 83.4805C96.4473 83.4805 94.1973 83.2578 91.209 82.8125C88.2324 82.3672 85.9824 82.1445 84.459 82.1445C81.9863 82.1445 79.2969 82.373 76.3906 82.8301C76.3086 82.8418 76.2441 82.8242 76.1973 82.7773C76.1504 82.7305 76.1328 82.6484 76.1445 82.5312C76.5664 78.5586 77.6445 75.2246 79.3789 72.5293C81.3711 69.4473 84.0254 67.5898 87.3418 66.957C93.8926 65.6914 97.3613 62.8438 97.748 58.4141C96.5059 58.3555 94.8594 57.998 92.8086 57.3418C91.4023 56.8848 90.1309 56.6562 88.9941 56.6562C88.2793 56.6562 87.6172 56.7441 87.0078 56.9199C86.4102 57.084 86.1113 57.2598 86.1113 57.4473C86.1113 57.5996 86.2227 57.6934 86.4453 57.7285C89.9258 58.3848 91.666 59.6094 91.666 61.4023C91.666 62.2695 91.0098 62.9785 89.6973 63.5293C88.4434 64.0566 86.9023 64.3203 85.0742 64.3203C81.0195 64.3203 78.9922 63.2539 78.9922 61.1211C78.9922 60.7109 79.0742 60.2773 79.2383 59.8203C80.4102 56.6328 83.9609 55.0391 89.8906 55.0391C91.2266 55.0391 93.2012 55.2676 95.8145 55.7246C98.4277 56.1816 100.402 56.4102 101.738 56.4102C102.465 56.4102 103.801 56.2988 105.746 56.0762C105.887 56.041 105.957 56.1875 105.957 56.5156C105.957 60.4766 105.084 63.5293 103.338 65.6738C101.662 67.7363 99.0195 69.1191 95.4102 69.8223C92.7383 70.3496 90.5879 71.7207 88.959 73.9355C87.8691 75.4121 87.125 77.041 86.7266 78.8223C86.9727 78.7988 87.3125 78.7871 87.7461 78.7871C89.1875 78.7871 90.8398 79.1094 92.7031 79.7539C94.7891 80.457 96.3359 80.8555 97.3438 80.9492C97.6016 80.9727 97.9883 80.9844 98.5039 80.9844C100.379 80.9844 101.316 80.709 101.316 80.1582C101.316 79.8184 100.379 79.4492 98.5039 79.0508C97.2852 78.793 96.3652 78.459 95.7441 78.0488C94.7949 77.4395 94.1914 76.5254 93.9336 75.3066C93.9102 75.1895 93.8984 75.0547 93.8984 74.9023C93.8984 73.9414 94.5781 73.1387 95.9375 72.4941C97.3555 71.8262 99.1953 71.4922 101.457 71.4922C101.984 71.4922 102.652 71.5273 103.461 71.5977C105.289 71.7617 106.713 72.3066 107.732 73.2324C108.658 74.0996 109.121 75.1602 109.121 76.4141ZM142.555 76.4141C142.555 76.918 142.473 77.4336 142.309 77.9609C141.84 79.4258 140.686 80.6797 138.846 81.7227C136.771 82.8945 134.287 83.4805 131.393 83.4805C129.881 83.4805 127.631 83.2578 124.643 82.8125C121.666 82.3672 119.416 82.1445 117.893 82.1445C115.42 82.1445 112.73 82.373 109.824 82.8301C109.742 82.8418 109.678 82.8242 109.631 82.7773C109.584 82.7305 109.566 82.6484 109.578 82.5312C110 78.5586 111.078 75.2246 112.812 72.5293C114.805 69.4473 117.459 67.5898 120.775 66.957C127.326 65.6914 130.795 62.8438 131.182 58.4141C129.939 58.3555 128.293 57.998 126.242 57.3418C124.836 56.8848 123.564 56.6562 122.428 56.6562C121.713 56.6562 121.051 56.7441 120.441 56.9199C119.844 57.084 119.545 57.2598 119.545 57.4473C119.545 57.5996 119.656 57.6934 119.879 57.7285C123.359 58.3848 125.1 59.6094 125.1 61.4023C125.1 62.2695 124.443 62.9785 123.131 63.5293C121.877 64.0566 120.336 64.3203 118.508 64.3203C114.453 64.3203 112.426 63.2539 112.426 61.1211C112.426 60.7109 112.508 60.2773 112.672 59.8203C113.844 56.6328 117.395 55.0391 123.324 55.0391C124.66 55.0391 126.635 55.2676 129.248 55.7246C131.861 56.1816 133.836 56.4102 135.172 56.4102C135.898 56.4102 137.234 56.2988 139.18 56.0762C139.32 56.041 139.391 56.1875 139.391 56.5156C139.391 60.4766 138.518 63.5293 136.771 65.6738C135.096 67.7363 132.453 69.1191 128.844 69.8223C126.172 70.3496 124.021 71.7207 122.393 73.9355C121.303 75.4121 120.559 77.041 120.16 78.8223C120.406 78.7988 120.746 78.7871 121.18 78.7871C122.621 78.7871 124.273 79.1094 126.137 79.7539C128.223 80.457 129.77 80.8555 130.777 80.9492C131.035 80.9727 131.422 80.9844 131.938 80.9844C133.812 80.9844 134.75 80.709 134.75 80.1582C134.75 79.8184 133.812 79.4492 131.938 79.0508C130.719 78.793 129.799 78.459 129.178 78.0488C128.229 77.4395 127.625 76.5254 127.367 75.3066C127.344 75.1895 127.332 75.0547 127.332 74.9023C127.332 73.9414 128.012 73.1387 129.371 72.4941C130.789 71.8262 132.629 71.4922 134.891 71.4922C135.418 71.4922 136.086 71.5273 136.895 71.5977C138.723 71.7617 140.146 72.3066 141.166 73.2324C142.092 74.0996 142.555 75.1602 142.555 76.4141Z" fill="black"/>
<path d="M48.1857 29.85V32.346H43.7937V47.25H41.1777V32.346H36.8817V29.85H48.1857ZM49.654 38.562C49.654 37.362 49.886 36.226 50.35 35.154C50.814 34.066 51.446 33.114 52.246 32.298C53.062 31.482 54.006 30.842 55.078 30.378C56.15 29.898 57.302 29.658 58.534 29.658C59.75 29.658 60.894 29.898 61.966 30.378C63.054 30.842 63.998 31.482 64.798 32.298C65.614 33.114 66.254 34.066 66.718 35.154C67.198 36.226 67.438 37.362 67.438 38.562C67.438 39.794 67.198 40.946 66.718 42.018C66.254 43.09 65.614 44.034 64.798 44.85C63.998 45.65 63.054 46.282 61.966 46.746C60.894 47.21 59.75 47.442 58.534 47.442C57.302 47.442 56.15 47.21 55.078 46.746C54.006 46.282 53.062 45.65 52.246 44.85C51.446 44.034 50.814 43.09 50.35 42.018C49.886 40.946 49.654 39.794 49.654 38.562ZM52.27 38.586C52.27 39.466 52.43 40.298 52.75 41.082C53.086 41.85 53.542 42.522 54.118 43.098C54.694 43.674 55.366 44.13 56.134 44.466C56.902 44.802 57.718 44.97 58.582 44.97C59.446 44.97 60.254 44.802 61.006 44.466C61.774 44.13 62.438 43.674 62.998 43.098C63.574 42.522 64.022 41.85 64.342 41.082C64.678 40.298 64.846 39.458 64.846 38.562C64.846 37.682 64.678 36.858 64.342 36.09C64.022 35.306 63.574 34.626 62.998 34.05C62.422 33.474 61.75 33.018 60.982 32.682C60.23 32.346 59.422 32.178 58.558 32.178C57.694 32.178 56.878 32.346 56.11 32.682C55.342 33.018 54.67 33.474 54.094 34.05C53.534 34.626 53.086 35.306 52.75 36.09C52.43 36.874 52.27 37.706 52.27 38.586ZM80.8152 47.25C80.2552 46.53 79.7192 45.842 79.2072 45.186C78.6952 44.53 78.1912 43.874 77.6952 43.218C77.1992 42.562 76.6952 41.898 76.1832 41.226C75.6872 40.554 75.1592 39.858 74.5992 39.138C74.3912 39.362 74.1912 39.57 73.9992 39.762C73.8072 39.938 73.5992 40.122 73.3752 40.314C73.3752 41.546 73.3752 42.706 73.3752 43.794C73.3912 44.866 73.3992 46.018 73.3992 47.25H70.4952V29.85H73.3992V36.354C73.3992 36.498 73.3832 36.642 73.3512 36.786C73.3352 36.914 73.3272 37.05 73.3272 37.194C73.4072 37.082 73.4872 36.986 73.5672 36.906C73.6472 36.81 73.7272 36.698 73.8072 36.57C74.9432 35.498 76.0392 34.386 77.0952 33.234C78.1512 32.066 79.2472 30.938 80.3832 29.85H83.7192C82.5192 31.098 81.3272 32.354 80.1432 33.618C78.9752 34.882 77.7912 36.138 76.5912 37.386C77.2632 38.25 77.9032 39.09 78.5112 39.906C79.1352 40.706 79.7432 41.506 80.3352 42.306C80.9432 43.106 81.5512 43.914 82.1592 44.73C82.7672 45.546 83.3992 46.386 84.0552 47.25H80.8152ZM93.0903 41.514V47.25H90.4503V41.514C90.3383 41.338 90.1143 40.954 89.7783 40.362C89.4583 39.77 89.0743 39.074 88.6263 38.274C88.1943 37.458 87.7223 36.594 87.2103 35.682C86.7143 34.77 86.2423 33.914 85.7943 33.114C85.3623 32.298 84.9783 31.594 84.6423 31.002C84.3223 30.41 84.1063 30.026 83.9943 29.85H86.9703C87.1143 30.09 87.3703 30.554 87.7383 31.242C88.1063 31.914 88.5143 32.682 88.9623 33.546C89.4103 34.394 89.8663 35.258 90.3303 36.138C90.7943 37.002 91.1863 37.746 91.5063 38.37L91.7703 39.162C91.8343 39.034 91.8903 38.906 91.9383 38.778C91.9863 38.634 92.0343 38.498 92.0823 38.37C92.4183 37.746 92.8103 37.002 93.2583 36.138C93.7063 35.258 94.1463 34.394 94.5783 33.546C95.0263 32.682 95.4263 31.914 95.7783 31.242C96.1463 30.554 96.4023 30.09 96.5463 29.85H99.4983L93.0903 41.514ZM99.529 38.562C99.529 37.362 99.761 36.226 100.225 35.154C100.689 34.066 101.321 33.114 102.121 32.298C102.937 31.482 103.881 30.842 104.953 30.378C106.025 29.898 107.177 29.658 108.409 29.658C109.625 29.658 110.769 29.898 111.841 30.378C112.929 30.842 113.873 31.482 114.673 32.298C115.489 33.114 116.129 34.066 116.593 35.154C117.073 36.226 117.313 37.362 117.313 38.562C117.313 39.794 117.073 40.946 116.593 42.018C116.129 43.09 115.489 44.034 114.673 44.85C113.873 45.65 112.929 46.282 111.841 46.746C110.769 47.21 109.625 47.442 108.409 47.442C107.177 47.442 106.025 47.21 104.953 46.746C103.881 46.282 102.937 45.65 102.121 44.85C101.321 44.034 100.689 43.09 100.225 42.018C99.761 40.946 99.529 39.794 99.529 38.562ZM102.145 38.586C102.145 39.466 102.305 40.298 102.625 41.082C102.961 41.85 103.417 42.522 103.993 43.098C104.569 43.674 105.241 44.13 106.009 44.466C106.777 44.802 107.593 44.97 108.457 44.97C109.321 44.97 110.129 44.802 110.881 44.466C111.649 44.13 112.313 43.674 112.873 43.098C113.449 42.522 113.897 41.85 114.217 41.082C114.553 40.298 114.721 39.458 114.721 38.562C114.721 37.682 114.553 36.858 114.217 36.09C113.897 35.306 113.449 34.626 112.873 34.05C112.297 33.474 111.625 33.018 110.857 32.682C110.105 32.346 109.297 32.178 108.433 32.178C107.569 32.178 106.753 32.346 105.985 32.682C105.217 33.018 104.545 33.474 103.969 34.05C103.409 34.626 102.961 35.306 102.625 36.09C102.305 36.874 102.145 37.706 102.145 38.586Z" fill="black"/>
</svg>
